<?xml version="1.0" encoding="utf-8"?>
<!-- Generator: Adobe Illustrator 15.0.0, SVG Export Plug-In  -->
<!DOCTYPE svg PUBLIC "-//W3C//DTD SVG 1.1//EN" "http://www.w3.org/Graphics/SVG/1.1/DTD/svg11.dtd" [
	<!ENTITY ns_flows "http://ns.adobe.com/Flows/1.0/">
]>
<svg version="1.1"
	 xmlns="http://www.w3.org/2000/svg" xmlns:xlink="http://www.w3.org/1999/xlink" xmlns:a="http://ns.adobe.com/AdobeSVGViewerExtensions/3.0/"
	 x="0px" y="0px" width="499px" height="226px" viewBox="0 0 499 226" overflow="visible" enable-background="new 0 0 499 226"
	 xml:space="preserve">
<defs>
</defs>
<rect fill="#81CEDC" width="499.071" height="225.962"/>
<rect x="39.308" y="140.056" fill="#FFFFFF" width="198" height="18"/>
<rect x="39.308" y="176.056" fill="#FFFFFF" width="198" height="17"/>
<rect x="260.308" y="140.056" fill="#FFFFFF" width="198" height="18"/>
<rect x="260.308" y="176.056" fill="#FFFFFF" width="198" height="18"/>
<path fill="#FFFFFF" d="M154.405,99.359h17.027h186.775c45.598,0,53.057-12.714,52.1-22.979
	c-2.021-21.71-47.475-34.53-113.995-35.123c9.556,5.015,10.941,15.182,18.863,21.531c4.553,3.65-2.797,9.128-7.368,5.462
	c-11.496-9.217-13.186-21.664-29.447-27.023c0,0-6.379-1.658-14.471-1.658c-7.582,0-26.586,0.896-26.582,0.893
	c9.579,5.021,11.655,15.968,19.592,22.328c3.041,2.439,0.771,5.687-2.437,6.488c-1.593,0.398-3.411,0.191-4.927-1.025
	c-11.498-9.218-11.858-21.669-28.122-27.029c0,0-6.376-1.658-14.472-1.658c-7.576,0-17.803,1.658-17.803,1.658
	c9.578,5.021,10.237,15.206,18.168,21.566l1.5,2.672c3.041,2.439-0.731,3.018-3.933,3.816c-1.594,0.398-3.416,0.191-4.934-1.025
	c-10.235-8.207-7.662-19.843-22.523-25.161c-42.975,4.318-73.499,15.978-75.109,33.287
	C101.351,86.645,108.808,99.357,154.405,99.359z"/>
</svg>
