<?xml version="1.0" encoding="utf-8"?>
<!-- Generator: Adobe Illustrator 15.0.0, SVG Export Plug-In  -->
<!DOCTYPE svg PUBLIC "-//W3C//DTD SVG 1.1//EN" "http://www.w3.org/Graphics/SVG/1.1/DTD/svg11.dtd" [
	<!ENTITY ns_flows "http://ns.adobe.com/Flows/1.0/">
]>
<svg version="1.1"
	 xmlns="http://www.w3.org/2000/svg" xmlns:xlink="http://www.w3.org/1999/xlink" xmlns:a="http://ns.adobe.com/AdobeSVGViewerExtensions/3.0/"
	 x="0px" y="0px" width="499px" height="226px" viewBox="0 0 499 226" overflow="visible" enable-background="new 0 0 499 226"
	 xml:space="preserve">
<defs>
</defs>
<rect fill="#81CEDC" width="499.072" height="225.963"/>
<rect x="256.809" y="35.592" fill="#FFFFFF" width="202" height="18"/>
<rect x="256.809" y="71.592" fill="#FFFFFF" width="202" height="17"/>
<rect x="256.809" y="106.592" fill="#FFFFFF" width="202" height="18"/>
<rect x="256.809" y="142.592" fill="#FFFFFF" width="202" height="18"/>
<rect x="256.809" y="180.592" fill="#FFFFFF" width="202" height="18"/>
<ellipse fill="#FFFFFF" cx="124.248" cy="71.023" rx="84.291" ry="7.928"/>
<g>
	<path fill="#FFFFFF" d="M116.755,109.876c-2.434,0-4.77-0.899-6.578-2.532L49.776,52.802c-4.017-3.627-4.334-9.848-0.707-13.867
		c1.86-2.059,4.517-3.239,7.291-3.239c2.434,0,4.771,0.899,6.578,2.532l60.4,54.543c4.017,3.629,4.334,9.85,0.708,13.868
		C122.186,108.696,119.529,109.876,116.755,109.876z"/>
	<path fill="#81CEDC" d="M56.36,38.195c1.749,0,3.503,0.623,4.903,1.887l60.4,54.543c2.999,2.71,3.235,7.337,0.527,10.337
		c-1.446,1.6-3.437,2.414-5.435,2.414c-1.749,0-3.502-0.623-4.903-1.887L51.451,50.946c-3-2.709-3.233-7.337-0.526-10.337
		C52.37,39.009,54.361,38.196,56.36,38.195 M56.36,33.195L56.36,33.195c-3.48,0-6.814,1.481-9.146,4.062
		c-4.552,5.044-4.154,12.849,0.886,17.399l60.401,54.542c2.269,2.048,5.2,3.176,8.254,3.176c3.479,0,6.812-1.48,9.145-4.061
		c4.552-5.042,4.154-12.847-0.885-17.399L64.614,36.372C62.346,34.323,59.415,33.195,56.36,33.195L56.36,33.195z"/>
</g>
<g>
	<path fill="#FFFFFF" d="M124.322,156.305c-21.415,0-31.979-5.484-34.602-7.082c-3.323-0.401-5.907-3.237-5.907-6.666v-2.104
		c-29.064-12.981-46.356-37.294-46.356-65.325v-3.049l2.99,0.597c0.408,0.082,41.239,8.14,83.8,8.14
		c42.586,0,83.395-8.059,83.802-8.14l2.99-0.598v3.049c0,28.029-17.292,52.342-46.354,65.325v2.104c0,3.426-2.58,6.261-5.898,6.665
		C156.169,150.833,145.707,156.305,124.322,156.305z"/>
	<path fill="#81CEDC" d="M208.539,75.127c0,31.225-21.037,52.873-46.354,63.689v3.74c0,2.328-1.887,4.215-4.217,4.215
		c0,0-9.635,7.033-33.646,7.033c-24.009,0-33.792-7.033-33.792-7.033c-2.33,0-4.217-1.887-4.217-4.215v-3.74
		C60.992,128,39.957,106.353,39.957,75.127c0,0,40.967,8.188,84.29,8.188C167.573,83.316,208.539,75.127,208.539,75.127
		 M34.957,69.029v6.098c0,15.864,4.966,30.196,14.759,42.596c7.881,9.98,18.758,18.348,31.598,24.335v0.498
		c0,4.505,3.25,8.266,7.53,9.061c3.552,2.076,14.436,7.188,35.479,7.188c21.007,0,31.803-5.099,35.348-7.19
		c4.272-0.801,7.515-4.558,7.515-9.058v-0.498c12.838-5.988,23.714-14.355,31.595-24.335c9.793-12.401,14.759-26.732,14.759-42.596
		V69.03l-5.979,1.194c-0.405,0.081-41.014,8.092-83.312,8.092c-42.339,0-82.905-8.011-83.31-8.091L34.957,69.029L34.957,69.029z"/>
</g>
</svg>
