<?xml version="1.0" encoding="utf-8"?>
<!-- Generator: Adobe Illustrator 15.0.0, SVG Export Plug-In  -->
<!DOCTYPE svg PUBLIC "-//W3C//DTD SVG 1.1//EN" "http://www.w3.org/Graphics/SVG/1.1/DTD/svg11.dtd" [
	<!ENTITY ns_flows "http://ns.adobe.com/Flows/1.0/">
]>
<svg version="1.1"
	 xmlns="http://www.w3.org/2000/svg" xmlns:xlink="http://www.w3.org/1999/xlink" xmlns:a="http://ns.adobe.com/AdobeSVGViewerExtensions/3.0/"
	 x="0px" y="0px" width="330px" height="117px" viewBox="0 0.051 330 117"
	 overflow="visible" enable-background="new 0 0.051 330 117" xml:space="preserve">
<defs>
</defs>
<path fill="#FFFFFF" d="M118.283,35.237l-7.24-20.5c-0.154-0.408-0.307-1.071-0.307-1.581c0-1.479,1.173-2.856,3.009-2.856
	c1.53,0,2.55,1.02,3.009,2.448l5.201,16.318l5.252-16.318c0.46-1.428,1.582-2.448,3.163-2.448h0.356c1.581,0,2.703,1.02,3.162,2.448
	l5.303,16.318l5.254-16.369c0.407-1.326,1.376-2.397,3.008-2.397c1.683,0,2.906,1.326,2.906,2.856c0,0.459-0.152,1.071-0.255,1.377
	l-7.343,20.704c-0.663,1.887-1.939,2.754-3.418,2.754h-0.203c-1.529,0-2.805-0.867-3.365-2.652l-5.254-16.012l-5.303,16.012
	c-0.561,1.785-1.835,2.652-3.314,2.652h-0.205C120.171,37.991,118.896,37.125,118.283,35.237z"/>
<path fill="#FFFFFF" d="M165.923,38.144c-7.804,0-13.82-5.66-13.82-13.973V24.07c0-7.701,5.457-14.024,13.157-14.024
	c8.566,0,12.8,7.038,12.8,13.259c0,1.734-1.325,2.958-2.907,2.958h-16.879c0.663,4.386,3.773,6.833,7.752,6.833
	c2.6,0,4.64-0.918,6.373-2.346c0.459-0.357,0.867-0.561,1.581-0.561c1.377,0,2.448,1.071,2.448,2.499
	c0,0.765-0.357,1.428-0.816,1.887C173.164,36.767,170.104,38.144,165.923,38.144z M172.042,22.183
	c-0.408-3.978-2.755-7.088-6.833-7.088c-3.775,0-6.426,2.907-6.986,7.088H172.042z"/>
<path fill="#FFFFFF" d="M182.58,3.111c0-1.734,1.325-3.06,3.06-3.06c1.733,0,3.11,1.326,3.11,3.06v11.983
	c1.988-2.805,4.793-5.048,9.178-5.048c6.326,0,12.495,4.998,12.495,13.973v0.102c0,8.924-6.119,13.973-12.495,13.973
	c-4.486,0-7.291-2.244-9.178-4.743v1.377c0,1.683-1.377,3.06-3.11,3.06c-1.683,0-3.06-1.377-3.06-3.06V3.111z M204.15,24.121v-0.102
	c0-5.202-3.52-8.618-7.7-8.618c-4.182,0-7.854,3.468-7.854,8.618v0.102c0,5.15,3.673,8.618,7.854,8.618
	C200.682,32.739,204.15,29.424,204.15,24.121z"/>
<path fill="#FFFFFF" d="M228.07,24.223v-0.102c0-7.649,5.916-14.075,14.024-14.075c4.233,0,7.14,1.377,9.435,3.366
	c0.408,0.357,0.969,1.122,0.969,2.142c0,1.581-1.274,2.805-2.855,2.805c-0.765,0-1.428-0.306-1.836-0.612
	c-1.582-1.326-3.314-2.294-5.764-2.294c-4.486,0-7.801,3.875-7.801,8.567v0.102c0,4.793,3.314,8.618,8.057,8.618
	c2.447,0,4.335-0.969,6.018-2.397c0.357-0.306,0.969-0.663,1.682-0.663c1.48,0,2.654,1.224,2.654,2.703
	c0,0.816-0.309,1.479-0.868,1.938c-2.396,2.295-5.304,3.825-9.791,3.825C233.986,38.144,228.07,31.872,228.07,24.223z"/>
<path fill="#FFFFFF" d="M257.029,3.111c0-1.683,1.324-3.06,3.059-3.06s3.111,1.377,3.111,3.06v11.626
	c1.734-2.499,4.232-4.691,8.414-4.691c6.068,0,9.587,4.08,9.587,10.301v14.38c0,1.734-1.325,3.06-3.06,3.06s-3.111-1.326-3.111-3.06
	V22.234c0-4.182-2.09-6.579-5.762-6.579c-3.57,0-6.068,2.499-6.068,6.681v12.392c0,1.734-1.377,3.06-3.111,3.06
	c-1.682,0-3.059-1.326-3.059-3.06V3.111z"/>
<path fill="#FFFFFF" d="M299.277,38.144c-7.803,0-13.82-5.66-13.82-13.973V24.07c0-7.701,5.457-14.024,13.156-14.024
	c8.566,0,12.801,7.038,12.801,13.259c0,1.734-1.326,2.958-2.907,2.958h-16.88c0.664,4.386,3.775,6.833,7.752,6.833
	c2.601,0,4.641-0.918,6.373-2.346c0.459-0.357,0.867-0.561,1.582-0.561c1.377,0,2.447,1.071,2.447,2.499
	c0,0.765-0.357,1.428-0.816,1.887C306.519,36.767,303.459,38.144,299.277,38.144z M305.396,22.183
	c-0.408-3.978-2.754-7.088-6.834-7.088c-3.773,0-6.426,2.907-6.985,7.088H305.396z"/>
<path fill="#FFFFFF" d="M316.802,15.911h-1.071c-1.428,0-2.601-1.122-2.601-2.55c0-1.428,1.173-2.601,2.601-2.601h1.071V8.771
	c0-2.958,0.765-5.201,2.192-6.629C320.422,0.714,322.41,0,325.062,0c1.224,0,2.244,0.102,3.109,0.255
	c1.123,0.153,2.143,1.173,2.143,2.55c0,1.428-1.174,2.601-2.601,2.55c-0.356-0.051-0.866-0.102-1.274-0.102
	c-2.346,0-3.569,1.275-3.569,4.08v1.479h4.792c1.479,0,2.602,1.122,2.602,2.55c0,1.428-1.173,2.55-2.602,2.55h-4.69v18.817
	c0,1.683-1.377,3.06-3.11,3.06c-1.684,0-3.06-1.377-3.06-3.06V15.911z"/>
<path fill="#FFFFFF" d="M214.451,52.54h-6.245l1.454-6.76c1.199-5.733,4.106-7.017,5.992-7.017c1.709,0,3.25,0.941,3.25,2.909
	c0,0.771-0.084,1.455-0.172,2.311h4.021c0.172-1.027,0.258-2.139,0.258-3.508c0-5.562-4.879-9.242-10.098-9.242
	c-5.648,0-13.007,2.311-15.576,14.547l-7.252,34.228h-0.02c-1.284,4.279-3.596,8.045-6.932,8.045c-2.396,0-3.51-1.284-3.51-3.68
	c0-0.771,0.087-1.627,0.342-2.738l6.162-29.095h-12.322l-0.94,4.535v-0.599c0-2.481-2.054-4.364-6.932-4.364
	c-14.537,0-21.646,17.536-21.975,29.118c-3.905,4.269-7.868,7.42-14.052,7.42c-4.106,0-6.16-1.369-6.16-7.188
	c0-9.498,5.562-25.158,10.953-25.158c1.626,0,2.396,1.369,2.396,3.508c0,1.454-0.344,3.167-1.026,5.049
	c1.026,0.685,2.053,1.026,2.994,1.026c2.481,0,4.535-2.053,4.535-6.246c0-3.937-1.882-7.873-9.498-7.873
	c-17.372,0-23.02,20.537-23.02,30.463c0,9.669,5.307,13.606,13.35,13.606c8.752,0,15.067-4.711,19.74-10.465
	c1.088,7.657,6.015,10.465,11.151,10.465c6.074,0,10.097-3.938,12.75-7.873c0.512,5.135,3.593,7.873,8.386,7.873
	c3.028,0,7.381-0.811,11.392-5.294l-0.865,4.095c-8.131,2.482-14.719,4.963-14.719,12.836c0,5.562,4.878,9.242,10.098,9.242
	c5.647,0,12.75-2.311,15.316-14.547l9.841-46.209h6.332L214.451,52.54z M167.986,80.007c-1.027,4.964-4.62,7.531-7.102,7.531
	c-1.541,0-4.279-0.086-4.279-6.675c0-8.044,4.707-23.447,11.979-23.447c2.74,0,3.511,2.225,3.511,3.252L167.986,80.007z
	 M185.272,102.427c-1.112,5.049-3.079,6.675-4.878,6.675c-1.883,0-3.423-1.626-3.423-2.823c0-4.621,4.022-7.018,9.413-8.814
	L185.272,102.427z"/>
<path fill="#FFFFFF" d="M224.379,80.607c0-0.77,0.086-1.711,0.17-2.566c10.271-0.6,19.686-8.13,19.686-18.057
	c0-4.278-1.801-8.214-9.415-8.214c-17.542,0-23.105,20.623-23.105,30.463c0,9.669,5.307,13.606,13.265,13.606
	c6.846,0,13.008-2.91,14.803-12.666c-2.738,2.396-6.845,4.536-10.097,4.536C226.689,87.709,224.379,85.998,224.379,80.607z
	 M235.503,56.305c1.627,0,2.141,1.369,2.141,3.508c0,7.188-5.819,13.776-12.494,14.12C226.945,65.803,231.225,56.305,235.503,56.305
	z"/>
<path fill="#FFFFFF" d="M61.569,7.229c-6.443-4.458-16.92-4.021-23.505,0c-4.036-2.435-7.91-4.281-14.438-3.703
	C10.72,4.663,0.994,14.213,0.08,27.075c-1.03,14.372,8.047,24.967,19.316,28.847l0.014,41.341c0,0,6.5-7.846,30.211-7.846
	s31.134,7.941,31.134,7.941s0-34.965,0.015-41.969c10.119-3.516,17.946-10.352,19.056-22.225
	C102.041,9.374,80.348-2.723,61.569,7.229z M69.654,46.391v21.973c0,5.26-0.476,5.231-2.35,5.231s-2.342,0.047-2.342-5.231v-22.03
	c0-1.594-0.093-3.357,0.456-3.907c0.631-0.634,4.235-0.411,4.235-0.411c8.136,0,15.762-6.257,15.762-12.283
	c0-5.614,0.859-5.614,2.2-5.614c1.336,0,2.192,0,2.192,5.614C89.809,38.183,80.353,46.391,69.654,46.391z"/>
</svg>
